<svg width="24" height="25" viewBox="0 0 24 25" fill="none" xmlns="http://www.w3.org/2000/svg">
<g clip-path="url(#clip0_97_3424)">
<path d="M5.88632 18.9982C9.20385 22.3157 13.4149 24.4013 17.7437 24.8706C17.8322 24.8802 17.9195 24.885 18.0057 24.885C18.5664 24.885 19.0774 24.6832 19.4958 24.2937L23.2761 20.7745C23.7866 20.2992 24.0477 19.6335 23.9926 18.948C23.9381 18.2688 23.5782 17.6596 23.0051 17.2766L19.5191 14.9462C18.6224 14.3467 17.4632 14.4607 16.7004 15.2236C16.5509 15.3731 16.4056 15.5321 16.2519 15.7005C15.5534 16.4653 15.0173 16.9945 14.4794 16.8363C11.5064 15.9626 8.92194 13.3782 8.04829 10.4052C7.95918 10.1021 8.03319 9.81204 8.25665 9.58858C8.37848 9.46676 8.52051 9.33579 8.67084 9.19708C9.13883 8.76546 9.66932 8.27618 10.0001 7.69394C10.5677 6.6949 10.2799 5.87632 9.93838 5.36552L7.60799 1.87947C7.22493 1.30647 6.61574 0.946568 5.93657 0.892005C5.25107 0.836927 4.5853 1.09807 4.11009 1.60854L0.590804 5.38872C0.141413 5.87144 -0.0580865 6.4773 0.0138666 7.14077C0.483226 11.4696 2.56879 15.6806 5.88632 18.9982ZM1.62009 6.3469L5.13932 2.56661C5.30437 2.38938 5.52698 2.29099 5.75835 2.29099C5.78015 2.29099 5.80199 2.29188 5.82388 2.29361C6.07565 2.31386 6.29404 2.44427 6.43888 2.66088L8.76923 6.14693C9.14174 6.70418 8.76426 7.19772 7.71735 8.1633C7.55624 8.31185 7.40409 8.45224 7.26219 8.59413C6.67565 9.18063 6.46513 10.0059 6.69904 10.8017C7.70212 14.215 10.6694 17.1823 14.0828 18.1855C14.2935 18.2474 14.4956 18.2753 14.6896 18.2753C15.8046 18.2753 16.6484 17.3515 17.2902 16.6488C17.4329 16.4925 17.5678 16.3449 17.6947 16.2179C17.977 15.9357 18.4058 15.8935 18.7375 16.1153L22.2235 18.4456C22.4402 18.5905 22.5706 18.8089 22.5908 19.0606C22.6113 19.3151 22.5118 19.5646 22.3178 19.7452L18.5376 23.2644C18.3577 23.4319 18.1477 23.4999 17.8953 23.4725C9.55645 22.5684 2.31613 15.3281 1.41191 6.98918C1.38454 6.73685 1.45265 6.52676 1.62009 6.3469Z" fill="#44C6E9"/>
</g>
<defs>
<clipPath id="clip0_97_3424">
<rect width="24" height="24" fill="white" transform="translate(0 0.884766)"/>
</clipPath>
</defs>
</svg>
