<svg xmlns="http://www.w3.org/2000/svg" xmlns:xlink="http://www.w3.org/1999/xlink"><symbol id="sprite-icon-arrow" viewBox="0 0 24 24"><path d="M4 11h12.17l-5.59-5.59 1.42-1.41 8 8-8 8-1.41-1.41 5.58-5.59h-12.17z"/></symbol><use xlink:href="#sprite-icon-arrow" width="24" height="24"/><view id="sprite-icon-arrow-view" viewBox="0 0 24 24"/><symbol id="sprite-icon-check" viewBox="0 0 16 16"><g clip-path="url(#clip0_97_3389)"><path d="M15.77 2.36a.8.8 0 0 0-1.14 0l-9.58 9.58-3.68-3.68a.8.8 0 0 0-1.14 1.13l4.25 4.25a.8.8 0 0 0 1.14 0l10.15-10.15a.8.8 0 0 0 0-1.13"/></g><defs><clipPath id="clip0_97_3389"><rect/></clipPath></defs></symbol><use xlink:href="#sprite-icon-check" width="16" height="16" y="24"/><view id="sprite-icon-check-view" viewBox="0 24 16 16"/><symbol id="sprite-icon-insta" viewBox="0 0 32 33"><g clip-path="url(#clip0_97_3438)"><path d="M16 8.92a7.98 7.98 0 0 0 0 15.93 7.98 7.98 0 0 0 0-15.93m0 14.06a6.1 6.1 0 1 1 .01-12.2 6.1 6.1 0 0 1-.01 12.2"/><path d="M23.53.88h-15.06a8.5 8.5 0 0 0-8.47 8.47v15.07c0 4.67 3.8 8.46 8.47 8.46h15.06c4.67 0 8.47-3.8 8.47-8.46v-15.07c0-4.67-3.8-8.47-8.47-8.47m6.6 23.54a6.6 6.6 0 0 1-6.6 6.59h-15.06a6.6 6.6 0 0 1-6.6-6.6v-15.06a6.6 6.6 0 0 1 6.6-6.59h15.06a6.6 6.6 0 0 1 6.6 6.6z"/><path d="M24.91 7.04a.94.94 0 0 0-.66 1.6.94.94 0 0 0 1.33 0 .94.94 0 0 0 0-1.33 1 1 0 0 0-.67-.27"/></g><defs><clipPath id="clip0_97_3438"><rect transform="translate(0 .885)"/></clipPath></defs></symbol><use xlink:href="#sprite-icon-insta" width="32" height="33" y="40"/><view id="sprite-icon-insta-view" viewBox="0 40 32 33"/><symbol id="sprite-icon-mail" viewBox="0 0 24 18"><path d="M23.3.45h-22.6a.7.7 0 0 0-.7.7v15.47c0 .39.31.7.7.7h22.6a.7.7 0 0 0 .7-.7v-15.47a.7.7 0 0 0-.7-.7m-.7 14.71-7.92-6.26 7.91-6.27zm-21.2-12.53 7.92 6.27-7.91 6.26zm10.6 6.6-9.3-7.37h18.6zm-1.55.56 1.11.88a.7.7 0 0 0 .88 0l1.1-.88 7.74 6.12h-18.56z"/></symbol><use xlink:href="#sprite-icon-mail" width="24" height="18" y="73"/><view id="sprite-icon-mail-view" viewBox="0 73 24 18"/><symbol id="sprite-icon-phone" viewBox="0 0 24 25"><g clip-path="url(#clip0_97_3424)"><path d="M5.89 19a20 20 0 0 0 12.12 5.89q.85 0 1.49-.6l3.78-3.52a2.24 2.24 0 0 0-.27-3.5l-3.5-2.32a2.2 2.2 0 0 0-2.81.27l-.45.48c-.7.77-1.23 1.3-1.77 1.14a9.8 9.8 0 0 1-6.43-6.43.8.8 0 0 1 .2-.82l.42-.4c.47-.42 1-.91 1.33-1.5a2.1 2.1 0 0 0-.06-2.32l-2.33-3.5a2.22 2.22 0 0 0-3.5-.26l-3.52 3.78a2.2 2.2 0 0 0-.58 1.75 20 20 0 0 0 5.88 11.86m-4.27-12.65 3.52-3.78a1 1 0 0 1 .68-.28.8.8 0 0 1 .62.37l2.33 3.49c.37.55 0 1.05-1.05 2.01l-.46.43a2.2 2.2 0 0 0-.56 2.21 11.3 11.3 0 0 0 7.38 7.39q.32.09.61.09c1.11 0 1.96-.93 2.6-1.63l.4-.43a.8.8 0 0 1 1.05-.1l3.48 2.33a.8.8 0 0 1 .37.61q.02.4-.27.69l-3.78 3.51a.8.8 0 0 1-.64.21c-8.34-.9-15.58-8.14-16.49-16.48a.8.8 0 0 1 .21-.64"/></g><defs><clipPath id="clip0_97_3424"><rect transform="translate(0 .885)"/></clipPath></defs></symbol><use xlink:href="#sprite-icon-phone" width="24" height="25" y="91"/><view id="sprite-icon-phone-view" viewBox="0 91 24 25"/><symbol id="sprite-icon-pin" viewBox="0 0 20 25"><path d="m3.3 16.87 6.15 7.75a.7.7 0 0 0 1.1 0l6.16-7.75a11.3 11.3 0 0 0 2.53-6.7 8.7 8.7 0 0 0-2.59-6.54 9.3 9.3 0 0 0-6.65-2.75c-2.52 0-4.88.98-6.65 2.75a8.7 8.7 0 0 0-2.6 6.53c.06 2.34.96 4.72 2.54 6.71m1.04-12.25a8 8 0 0 1 11.32 0c2.95 2.95 2.92 7.63-.06 11.38l-5.6 7.05-5.6-7.05c-2.98-3.75-3-8.43-.06-11.38m5.66 9.32a3.63 3.63 0 1 0 0-7.27 3.63 3.63 0 0 0 0 7.27m0-5.85a2.23 2.23 0 1 1 0 4.45 2.23 2.23 0 0 1 0-4.45"/></symbol><use xlink:href="#sprite-icon-pin" width="20" height="25" y="116"/><view id="sprite-icon-pin-view" viewBox="0 116 20 25"/><symbol id="sprite-icon-tg" viewBox="0 0 32 33"><mask id="mask0_97_3449" x="0" y="0" maskUnits="userSpaceOnUse" style="mask-type:luminance"><path d="M32 .88h-32v31.99h32z"/></mask><g mask="url(#mask0_97_3449)"><path d="M31.5 4.32a2 2 0 0 0-1.64-.75q-.55 0-1.15.23l-27.09 10.26c-1.44.55-1.63 1.37-1.62 1.81s.25 1.24 1.7 1.7l5.75 2.11 3.02 6.93c.3.96.94 1.64 1.76 1.85q.27.08.57.08c.66 0 1.33-.3 1.91-.84l2.51-2.36 6.12 4.22q.86.61 1.74.62c1.19 0 2.13-.87 2.41-2.21l4.43-21.43c.18-.88.04-1.67-.41-2.22m-22.15 15.04 7.82-4.2-5.45 5q-.3.28-.3.7v.02l-.02 3.16zm4.08 6.97-.17.15.02-3.85 2.36 1.63zm16.66-20.17-4.43 21.43c-.05.21-.2.71-.58.71a1 1 0 0 1-.66-.28l-6.75-4.64-3.82-2.63 10.08-9.25a.94.94 0 0 0-1.07-1.51l-14.79 7.93-5.74-2.11h-.02l27.07-10.26q.34-.11.48-.1c.04 0 .16 0 .2.05s.1.27.03.66"/></g></symbol><use xlink:href="#sprite-icon-tg" width="32" height="33" y="141"/><view id="sprite-icon-tg-view" viewBox="0 141 32 33"/><symbol id="sprite-icon-whatsapp" viewBox="0 0 32 33"><g clip-path="url(#clip0_97_3444)"><path d="M27.31 5.57a16 16 0 0 0-11.31-4.69 16 16 0 0 0-11.31 4.7 16 16 0 0 0-2.68 19.07l-1.98 7.04a.94.94 0 0 0 1.16 1.16l7.05-1.97a16 16 0 0 0 23.76-14c0-4.27-1.66-8.29-4.69-11.3m-11.31 25.44c-2.52 0-5-.67-7.16-1.95a1 1 0 0 0-.73-.1l-5.82 1.64 1.63-5.83a1 1 0 0 0-.1-.73 14.11 14.11 0 0 1 12.18-21.28c7.79 0 14.12 6.34 14.13 14.12 0 7.8-6.34 14.13-14.13 14.13"/><path d="M22.9 18.08a3 3 0 0 0-2.15-.88c-.81 0-1.57.31-2.15.88l-.43.44q-.16.16-.4.16a.6.6 0 0 1-.41-.16l-3-3a.6.6 0 0 1-.16-.4q0-.24.17-.4l.43-.44a3.05 3.05 0 0 0 0-4.3l-.87-.87a3 3 0 0 0-2.15-.9c-.82 0-1.58.32-2.15.9l-.65.65c-1.37 1.37-1.87 3.4-1.4 5.74a12.6 12.6 0 0 0 3.54 6.27c2.32 2.32 5.27 3.7 7.9 3.7 1.66 0 3.08-.54 4.1-1.56l.66-.65a3.05 3.05 0 0 0 0-4.3zm-.45 3.85-.65.65a3.8 3.8 0 0 1-2.78 1.02c-2.14 0-4.6-1.18-6.58-3.16a10.7 10.7 0 0 1-3.02-5.3c-.34-1.7-.03-3.15.88-4.06l.65-.65q.35-.34.83-.34t.82.34l.87.87c.46.46.46 1.2 0 1.65l-.43.44a2.4 2.4 0 0 0-.72 1.73c0 .66.26 1.27.72 1.73l3 3a2.43 2.43 0 0 0 3.46 0l.43-.44q.34-.33.82-.34.49 0 .83.34l.87.87c.46.45.46 1.2 0 1.65"/></g><defs><clipPath id="clip0_97_3444"><rect transform="translate(0 .885)"/></clipPath></defs></symbol><use xlink:href="#sprite-icon-whatsapp" width="32" height="33" y="174"/><view id="sprite-icon-whatsapp-view" viewBox="0 174 32 33"/></svg>