<svg xmlns="http://www.w3.org/2000/svg" fill="none" viewBox="0 0 272 61"><g clip-path="url(#clip0_97_3401)"><path fill="#0F2650" d="M35.61 7.32c.72-.22 1.81-.64 1.81-.64s-.77.68-1.31 1.04c0 0-.8.55-1.54.86l-1.9.82-2.31.5-2.36.13-1.58-.13-1.77-.27c-.81-.15-1.27-.24-2.08-.41-.98-.21-2.49-.6-2.49-.6l-2.08-.58c-.82-.23-1.23-.42-2.04-.59-.85-.17-1.35-.28-2.22-.27a6 6 0 0 0-3.67 1.09 9 9 0 0 0-2.54 2.8 9 9 0 0 0-1.03 2.13c-.41 1.2-.4 1.95-.5 3.22a25 25 0 0 0 0 4.03 51 51 0 0 0 1.54 9.2c.59 2.37.99 3.69 1.76 6.01 1.13 3.38 1.94 5.2 3.35 8.47 1.04 2.4 1.4 3.87 2.81 6.07.37.58.53.94 1 1.45.3.33.44.6.86.77.25.1.4.1.68.13.2.02.34.06.54 0 .37-.1.73-.63.73-.63s.43-.75.63-1.27c.25-.65.27-1.05.45-1.72.18-.64.24-1 .46-1.63.16-.47.28-.74.48-1.19l.01-.03c.2-.45.55-1.14.55-1.14s.46-.74.81-1.17c.36-.44 1-1.04 1-1.04s.5-.44.86-.68c.37-.26.59-.4 1-.6.4-.19.66-.33 1.08-.4l1.09-.18c.42-.07.6-.05 1 0 .3.04.76.18.76.18l1.14 2.54s-.78-.07-1.27 0c-.32.04-.5.08-.82.18a4 4 0 0 0-1.04.5c-.45.29-.68.5-1.04.9-.43.49-.58.84-.9 1.4-.29.49-.46.76-.68 1.27-.29.65-.55 1.72-.55 1.72s-.32 1.15-.45 1.9c-.11.65-.1 1.03-.18 1.68-.1.82-.12 1.29-.32 2.08a8 8 0 0 1-1.18 2.77c-.36.52-.6.8-1.08 1.22-.42.37-.66.6-1.18.81a3 3 0 0 1-1.27.23c-.52 0-.82-.07-1.31-.23a4 4 0 0 1-1.27-.63c-.54-.36-.78-.65-1.22-1.13-.67-.74-.9-1.26-1.45-2.09a47 47 0 0 1-2.72-4.52c-1.57-2.95-2.17-4.74-3.4-7.84-.76-1.93-1.85-4.98-1.85-4.98s-.8-2.28-1.27-3.76a100 100 0 0 1-2.17-7.6l-.03-.14c-.4-1.64-.64-2.6-.97-4.3a52 52 0 0 1-.95-7.56c-.03-.92-.02-1.44 0-2.36.03-1.11.01-1.75.18-2.85a16 16 0 0 1 1.81-5.25c.5-.77.86-1.16 1.54-1.77a8 8 0 0 1 3.17-1.86 8 8 0 0 1 1.86-.45c.68-.08 1.08-.04 1.77 0a13 13 0 0 1 4.07.87c.84.29 1.28.53 2.08.9 1.56.71 2.38 1.22 3.9 1.99 1.36.7 2.07 1.18 3.48 1.77 1.11.45 1.75.67 2.9 1 .63.17.99.28 1.63.4h.01c.47.1.74.14 1.22.18.6.05.93.02 1.53 0 .59-.02.92-.02 1.5-.09a16 16 0 0 0 2.94-.63"/><path fill="#44C6E9" d="m25.83 12.75-1.63-1.04 2.27.72s1.26.17 2.08.23c.72.06 1.86.09 1.86.09l1.85-.45c.8-.2 1.26-.28 2.04-.55.84-.29 1.28-.52 2.08-.9 2-.96 4.85-2.94 4.85-2.94 1.3-.83 1.97-1.4 3.3-2.18 1.02-.6 1.57-1.01 2.67-1.45a11 11 0 0 1 1.72-.54 8 8 0 0 1 3.58-.14c.6.13.94.24 1.5.5.42.2.65.32 1.04.59a5 5 0 0 1 1.8 2 11 11 0 0 1 1.18 3.49c.24 1.28.21 2.03.23 3.34a34 34 0 0 1-.4 5.57c-.32 2.32-.64 3.6-1.18 5.89-1.05 4.46-1.95 6.89-3.44 11.23a173 173 0 0 1-5.34 13.63c-.93 2.13-1.45 3.33-2.45 5.43-.45.94-.66 1.5-1.18 2.4l-.5.81s-.6.75-1.08 1.14-.79.58-1.36.81c-.53.22-.84.3-1.4.36a4.3 4.3 0 0 1-3.07-.67h-.02a5 5 0 0 1-1.26-1c-.42-.48-.54-.83-.82-1.4-.54-1.14-.56-1.88-.9-3.08-.62-2.19-.87-3.44-1.5-5.62-.37-1.3-.56-2.03-1-3.3a35 35 0 0 0-2.9-6.57c-.8-1.34-1.3-2.07-2.3-3.26a20 20 0 0 0-3.04-3.04c-.76-.62-1.2-.95-2.03-1.49-.97-.64-1.56-.94-2.58-1.5a31 31 0 0 0-3.08-1.49c-.79-.33-1.24-.47-2.04-.77l-2.72-1s2 .33 3.26.6a52 52 0 0 1 7.88 2.17s1.82.77 2.94 1.36a23 23 0 0 1 5.85 4.12c.58.58.88.94 1.4 1.58.63.8.97 1.26 1.5 2.13.74 1.24 1.03 2.01 1.58 3.35.44 1.08.64 1.7 1 2.8.6 1.9.92 4.1 1.22 4.99.3.88.38 1.38.68 2.26.3.89.37 1.08.77 1.63.17.25.28.39.54.55a1 1 0 0 0 .72.13c.3-.04.46-.16.68-.36.44-.38.63-.7.95-1.18 1.13-1.63 1.23-2.88 2-4.7 1.32-3.16 2.99-8.25 2.99-8.25.84-2.43 1.34-3.78 2.08-6.25a93 93 0 0 0 2.62-10.64c.25-1.28.45-2 .6-3.3.1-1 .1-1.57.13-2.58.03-1.08.09-1.63 0-2.77-.04-.43-.15-.66-.27-1.08-.13-.41-.13-.6-.36-1.04a3 3 0 0 0-.41-.64c-.29-.36-.5-.5-.86-.81-.31-.27-.58-.33-.98-.4l-.02-.01c-.41-.08-1.09 0-1.09 0s-.8.03-1.3.14c-.57.11-.88.23-1.41.45-.7.28-1.06.54-1.72.9-.6.33-.93.55-1.54.86l-.02.01c-.58.3-.91.47-1.52.72-.72.29-1.14.41-1.87.62l-.03.01a17 17 0 0 1-3.8.73h-1.5l-1.72-.1s-.84-.05-1.36-.17c-.45-.1-1.13-.37-1.13-.37l-1.68-.54a11 11 0 0 1-1.63-.77"/><path fill="#0F2650" d="M77.4 53.2q-1.3 0-2.36-.71a5 5 0 0 1-1.63-2.08q-.6-1.34-.59-3.24 0-1.4.34-2.5a6 6 0 0 1 .99-1.9q.63-.8 1.47-1.2.84-.41 1.85-.41.94 0 1.68.42.75.42 1.2 1l-.72.91q-.42-.5-.96-.76a2.7 2.7 0 0 0-2.9.3 3.7 3.7 0 0 0-1.16 1.63 7 7 0 0 0-.42 2.48q0 1.47.4 2.53t1.15 1.65q.75.57 1.76.56.74 0 1.31-.3.6-.31 1.07-.92l.7.87q-.61.8-1.39 1.24-.75.42-1.78.42m6.3-.22v-7.42h-2.6v-1.18h6.51v1.18h-2.6v7.42zm8.44.21q-.94 0-1.78-.53a4 4 0 0 1-1.32-1.54 5.5 5.5 0 0 1-.5-2.42q0-1.46.5-2.46.51-1.02 1.32-1.54a3.2 3.2 0 0 1 3.55 0q.81.52 1.31 1.54.51 1 .51 2.46 0 1.41-.5 2.42a4 4 0 0 1-1.32 1.54q-.81.53-1.77.53m0-1.2q.67 0 1.18-.4.51-.43.78-1.18a5 5 0 0 0 .27-1.71q0-.99-.27-1.74-.27-.76-.78-1.17a1.8 1.8 0 0 0-1.18-.42q-.67 0-1.18.42-.5.41-.79 1.17-.27.75-.27 1.74a5 5 0 0 0 .27 1.71q.3.75.79 1.17.5.4 1.18.41m5.64 1v-8.61h1.58l1.5 4a25 25 0 0 1 .66 2.12h.06l.32-1.11.33-1.01 1.46-4h1.6v8.6h-1.22v-3.86l.02-.92.06-1.08.07-1h-.07q-.15.54-.35 1.09l-.35 1.04-1.42 3.92h-1l-1.45-3.92q-.15-.49-.35-1.04l-.35-1.1h-.06a89 89 0 0 1 .14 3.01v3.86zm11.9.2q-.64 0-1.17-.28-.5-.3-.82-.83-.3-.55-.3-1.33 0-1.45 1.15-2.2 1.15-.74 3.64-1.04 0-.53-.16-1.03-.12-.5-.47-.8-.36-.3-.98-.3-.68 0-1.26.29-.6.27-1.06.6l-.5-.99a6 6 0 0 1 1.86-.94 4 4 0 0 1 1.18-.18q.94 0 1.54.45.6.42.88 1.22t.28 1.88v5.27h-1.08l-.11-1.03h-.05a7 7 0 0 1-1.2.89q-.64.36-1.37.35m.36-1.2q.58 0 1.07-.28.51-.3 1.07-.84v-2.31q-1.3.17-2.07.46-.75.26-1.09.67-.33.41-.33.97 0 .71.4 1.03.4.3.95.3m7.39 1v-7.43h-2.6v-1.18h6.51v1.18h-2.6v7.42zm8.44.2q-.94 0-1.78-.53a4 4 0 0 1-1.32-1.54 5.5 5.5 0 0 1-.5-2.42q0-1.46.5-2.46.51-1.02 1.32-1.54a3.2 3.2 0 0 1 3.55 0q.81.52 1.31 1.54.51 1 .51 2.46 0 1.41-.5 2.42a4 4 0 0 1-1.32 1.54q-.81.53-1.77.53m0-1.2q.66 0 1.18-.4.51-.43.78-1.18a5 5 0 0 0 .27-1.71q0-.99-.27-1.74-.27-.76-.78-1.17a1.8 1.8 0 0 0-1.18-.42q-.67 0-1.18.42-.5.41-.79 1.17-.27.75-.27 1.74 0 .98.27 1.71.29.75.79 1.17.5.4 1.18.41m5.19 1.15a2 2 0 0 1-.7-.14l.25-1.33.16.05q.1.03.2.02.39 0 .66-.42.28-.45.37-1.37l.3-2.78.3-2.8h4.77v8.61h-1.33v-7.42h-2.4q-.15 1.2-.26 2.4l-.26 2.37q-.16 1.4-.69 2.1-.51.7-1.37.71m11.95.05q-.95 0-1.77-.53a4 4 0 0 1-1.33-1.54 5.5 5.5 0 0 1-.5-2.42q0-1.46.5-2.46.51-1.02 1.33-1.54a3.2 3.2 0 0 1 3.55 0q.81.52 1.3 1.54.52 1 .52 2.46a5 5 0 0 1-.52 2.42 4 4 0 0 1-1.3 1.54q-.82.53-1.78.53m0-1.2q.67 0 1.18-.4.52-.43.79-1.18a5 5 0 0 0 .27-1.71q0-.99-.27-1.74-.27-.76-.79-1.17a1.8 1.8 0 0 0-1.18-.42q-.66 0-1.18.42-.5.41-.78 1.17-.27.75-.27 1.74 0 .98.27 1.71.28.75.78 1.17.5.4 1.18.41m5.64 1v-8.61h4.84v1.18h-3.53v7.42zm6.57 0v-8.61h1.28v3.57a35 35 0 0 1-.13 3.23h.06a35 35 0 0 1 1.01-1.95l2.75-4.85h1.44v8.6h-1.28v-3.57a36 36 0 0 1 .13-3.23h-.07l-.5 1.03q-.26.53-.5.94l-2.77 4.83zm13.28 0v-3.44a6 6 0 0 1-1.52.17q-1 0-1.67-.3-.69-.3-1.06-.95a3.6 3.6 0 0 1-.37-1.74v-2.35h1.31v2.35q0 .96.5 1.38.5.43 1.55.43a5 5 0 0 0 1.26-.16v-4h1.31v8.6zm7.07.2q-1.03 0-1.9-.53a4 4 0 0 1-1.34-1.54 5.5 5.5 0 0 1-.5-2.44q0-1.4.52-2.4.51-1.02 1.3-1.57a2.9 2.9 0 0 1 3.38-.03q.7.5 1.05 1.4a6 6 0 0 1 .29 2.99h-5.6v-1.15h4.48a3 3 0 0 0-.5-1.9 1.6 1.6 0 0 0-1.38-.67q-.53 0-1.04.34-.5.32-.85 1.04a5 5 0 0 0-.32 1.93q0 1.1.34 1.84.35.75.94 1.14.59.36 1.3.37.55 0 1.03-.18.5-.18.9-.48l.48.96q-.51.39-1.15.64-.63.24-1.43.24m7.87 0a3.4 3.4 0 0 1-3.18-2.07 6 6 0 0 1-.48-2.42q0-1.46.5-2.46.54-1.02 1.38-1.54.87-.54 1.86-.54.75 0 1.3.29.57.29.97.72l-.66.9a2 2 0 0 0-.69-.49q-.38-.2-.88-.2a2 2 0 0 0-1.24.43q-.54.41-.86 1.15-.33.75-.33 1.74 0 .98.3 1.71.32.75.86 1.17.54.4 1.26.41.54 0 1-.23.47-.23.8-.58l.58.88q-.5.51-1.12.83-.62.3-1.37.3m4.2-.2v-8.61h1.3v3.54h1.64l.76-1.91q.32-.77.63-1.14.32-.38.65-.53.36-.14.78-.14a1 1 0 0 1 .47.1l-.24 1.37-.13-.04-.13-.01q-.3 0-.57.2-.25.18-.55.93l-.67 1.7 2.51 4.53h-1.44l-2.03-3.88h-1.67v3.88zm9.54.2q-.64 0-1.17-.28-.5-.3-.81-.83-.3-.55-.3-1.33 0-1.45 1.15-2.2 1.14-.74 3.64-1.04-.01-.53-.16-1.03a1.5 1.5 0 0 0-.48-.8q-.35-.3-.97-.3-.67 0-1.27.29-.58.27-1.05.6l-.51-.99a6 6 0 0 1 3.05-1.12q.95 0 1.53.45.6.42.88 1.22.3.8.29 1.88v5.27h-1.09l-.1-1.03h-.06q-.56.52-1.2.89a3 3 0 0 1-1.37.35m.37-1.2q.57 0 1.07-.28.51-.3 1.07-.84v-2.31q-1.31.17-2.08.46-.75.26-1.08.67t-.34.97q0 .71.4 1.03.4.3.96.3m10.17 1v-3.37h-1.45q-.56 0-1.1-.14a2.6 2.6 0 0 1-1.68-1.33 3 3 0 0 1-.26-1.22q0-.96.4-1.5a2.2 2.2 0 0 1 1.1-.8q.69-.25 1.56-.25h2.74v8.6zm-1.21-4.5h1.21v-2.98h-1.21q-.9 0-1.44.35-.51.35-.51 1.08t.51 1.16q.52.38 1.44.38m-3.85 4.5 2.7-4.1 1.1.44-2.3 3.65zm12.2 0v-8.61h1.31v3.54h1.63l.77-1.91q.32-.77.62-1.14.31-.38.66-.53.35-.14.78-.14a1 1 0 0 1 .46.1l-.24 1.37-.13-.04-.12-.01q-.3 0-.58.2-.25.18-.54.93l-.67 1.7 2.5 4.53h-1.43l-2.03-3.88h-1.68v3.88zm7.46.15a2 2 0 0 1-.7-.14l.26-1.33.16.05q.09.03.19.02.4 0 .67-.42.27-.45.37-1.37l.3-2.78.29-2.8h4.77v8.61h-1.32v-7.42h-2.41l-.26 2.4q-.11 1.18-.25 2.37-.16 1.4-.7 2.1-.5.7-1.37.71m8.94-.16v-8.6h1.28v3.57a38 38 0 0 1-.13 3.23h.06a37 37 0 0 1 1-1.95l2.76-4.85h1.43v8.6h-1.27v-3.57a34 34 0 0 1 .12-3.23h-.06l-.5 1.03-.5.94-2.77 4.83zm9.03 0v-8.6h1.31v3.49h3.74v-3.5h1.3v8.61h-1.3v-3.82h-3.74v3.82zm8.97 0v-8.6h1.28v3.57a40 40 0 0 1-.13 3.23h.07a30 30 0 0 1 1-1.95l2.75-4.85h1.44v8.6h-1.28v-3.57a36 36 0 0 1 .13-3.23h-.07l-.5 1.03q-.26.53-.5.94l-2.77 4.83zm9.03 0v-8.6h1.31v3.54h1.63l.77-1.91q.32-.77.62-1.14.33-.38.66-.53.35-.14.78-.14a1 1 0 0 1 .46.1l-.23 1.37-.13-.04-.13-.01q-.3 0-.57.2-.27.18-.55.93l-.67 1.7 2.5 4.53h-1.43l-2.03-3.88h-1.68v3.88zm9.55.21q-.64 0-1.17-.28-.51-.3-.81-.83-.3-.55-.3-1.33 0-1.45 1.14-2.2 1.15-.74 3.65-1.04-.03-.53-.16-1.03t-.48-.8-.98-.3q-.67 0-1.26.29-.6.27-1.05.6l-.52-.99a6 6 0 0 1 3.06-1.12q.94 0 1.53.45.6.42.88 1.22t.29 1.88v5.27h-1.1l-.1-1.03h-.05a7 7 0 0 1-1.2.89q-.63.36-1.37.35m.37-1.2q.57 0 1.06-.28.52-.3 1.08-.84v-2.31q-1.32.17-2.08.46-.75.26-1.09.67-.33.41-.33.97 0 .71.4 1.03.4.3.95.3"/><g filter="url(#filter0_d_97_3401)"><path fill="#44C6E9" d="M72.82 30.99v-22h4.16v9.05h9.83v-9.05h4.16v22h-4.16v-9.07h-9.83v9.07zm41.04 0h-4.22v-14.67l-9.56 14.67h-4.21v-22h4.21v14.67l9.56-14.67h4.22zm14.31.46q-3.3 0-5.7-1.44a9.6 9.6 0 0 1-3.67-4.02 13 13 0 0 1-1.29-6q0-3.42 1.28-6a9.6 9.6 0 0 1 3.69-4.02q2.4-1.44 5.7-1.44 3.78 0 6.35 1.88a10 10 0 0 1 3.63 5.09l-4.18 1.16a6 6 0 0 0-2.06-3.1 6 6 0 0 0-3.75-1.12 6 6 0 0 0-3.5.94 5.7 5.7 0 0 0-2.09 2.62q-.7 1.7-.7 4 0 2.28.7 3.98a5.7 5.7 0 0 0 2.1 2.62q1.4.94 3.5.94 2.28 0 3.74-1.12a6 6 0 0 0 2.06-3.1l4.18 1.16a10 10 0 0 1-3.63 5.09 10.5 10.5 0 0 1-6.36 1.88m23.4 0q-3.3 0-5.69-1.44a9.6 9.6 0 0 1-3.68-4.02 13 13 0 0 1-1.28-6q0-3.42 1.28-6a9.6 9.6 0 0 1 3.68-4.02q2.4-1.44 5.7-1.44t5.68 1.44a9.5 9.5 0 0 1 3.68 4.02 13 13 0 0 1 1.3 6q0 3.42-1.3 6a9.5 9.5 0 0 1-3.68 4.02 11 11 0 0 1-5.68 1.44m0-3.91q2.1.03 3.49-.9a5.6 5.6 0 0 0 2.08-2.65q.7-1.7.7-4t-.7-3.97a5.6 5.6 0 0 0-2.08-2.61 6.3 6.3 0 0 0-3.48-.97 6 6 0 0 0-3.49.9 5.7 5.7 0 0 0-2.09 2.65 11 11 0 0 0-.68 4q0 2.3.68 3.97a5.7 5.7 0 0 0 2.1 2.61 6.3 6.3 0 0 0 3.48.97"/></g></g><defs><clipPath id="clip0_97_3401"><path fill="#fff" d="M0 .88h271.75v60h-271.75z"/></clipPath><filter id="filter0_d_97_3401" width="90.4199" height="23.9131" x="72.8203" y="8.53418" color-interpolation-filters="sRGB" filterUnits="userSpaceOnUse"><feFlood flood-opacity="0" result="BackgroundImageFix"/><feColorMatrix in="SourceAlpha" result="hardAlpha" values="0 0 0 0 0 0 0 0 0 0 0 0 0 0 0 0 0 0 127 0"/><feOffset dx="1" dy="1"/><feComposite in2="hardAlpha" operator="out"/><feColorMatrix values="0 0 0 0 0.831373 0 0 0 0 0.894118 0 0 0 0 0.956863 0 0 0 1 0"/><feBlend in2="BackgroundImageFix" result="effect1_dropShadow_97_3401"/><feBlend in="SourceGraphic" in2="effect1_dropShadow_97_3401" result="shape"/></filter></defs></svg>