<svg xmlns="http://www.w3.org/2000/svg" fill="none" viewBox="0 0 205 205"><g opacity="0.3"><path fill="url(#paint0_linear_97_3147)" d="M69.19 107.63h7.69v25.62h-7.7z"/><circle cx="73.0312" cy="60.2188" r="49.9688" fill="url(#paint1_linear_97_3147)"/><circle cx="73.0312" cy="60.2188" r="42.2812" fill="url(#paint2_linear_97_3147)"/><ellipse cx="83.7042" cy="76.7919" fill="url(#paint3_linear_97_3147)" opacity="0.55" rx="28.4297" ry="20.4435" transform="rotate(-35.894 83.704 76.792)"/><g filter="url(#filter0_f_97_3147)" opacity="0.3"><ellipse cx="21.5109" cy="17.511" fill="url(#paint4_linear_97_3147)" rx="11.1852" ry="6.50778" transform="rotate(135 21.51 17.511)"/></g><g filter="url(#filter1_f_97_3147)"><path fill="url(#paint5_linear_97_3147)" d="m53.93 30.32-2.14-10.22a2 2 0 0 0-1.96-1.59h-1.62a2 2 0 0 0-1.97 1.66l-1.71 9.9a7 7 0 0 1-5.54 5.68l-11.8 2.34a2 2 0 0 0-1.6 1.96v1.33a2 2 0 0 0 1.69 1.97l11.43 1.8a7 7 0 0 1 5.82 5.77l1.72 10.4a2 2 0 0 0 1.98 1.66h1.59a2 2 0 0 0 1.96-1.6l2.14-10.69a7 7 0 0 1 5.74-5.53l10.38-1.69a2.8 2.8 0 0 0 .11-5.52l-10.77-2.21a7 7 0 0 1-5.45-5.42"/></g><path fill="url(#paint6_linear_97_3147)" d="m51.55 29.43-1.24-9.78a1.3 1.3 0 0 0-2.6.04l-.9 9.43a10 10 0 0 1-8.78 8.99l-11.3 1.33a1.3 1.3 0 0 0 .04 2.58l10.9.89a10 10 0 0 1 9.14 9.05l.9 9.84a1.3 1.3 0 0 0 2.6.04l1.24-10.18a10 10 0 0 1 9.08-8.75l10.58-.9a1.3 1.3 0 0 0 .05-2.57l-11-1.34a10 10 0 0 1-8.7-8.67"/><path fill="url(#paint7_linear_97_3147)" d="M143.5 104.97c0-6.64 1.84-13.15 5.32-18.8l20.15-32.75a15.4 15.4 0 0 0-.48-16.84l-10.64-15.29a1.04 1.04 0 0 1 1.67-1.22l13.64 17.9a15.4 15.4 0 0 1 1.07 17.03l-18.2 31.4a36 36 0 0 0-4.84 18v28.85h-7.69z"/><path fill="url(#paint8_linear_97_3147)" fill-opacity="0.2" d="M143.5 104.97c0-6.64 1.84-13.15 5.32-18.8l20.15-32.75a15.4 15.4 0 0 0-.48-16.84l-10.64-15.29a1.04 1.04 0 0 1 1.67-1.22l13.64 17.9a15.4 15.4 0 0 1 1.07 17.03l-18.2 31.4a36 36 0 0 0-4.84 18v28.85h-7.69z"/><path fill="url(#paint9_linear_97_3147)" d="M138.74 130.47a2.56 2.56 0 0 1 2.56-2.34h12.09a2.56 2.56 0 0 1 2.55 2.34l4.3 50.24a12.94 12.94 0 1 1-25.79 0z"/><path fill="url(#paint10_linear_97_3147)" fill-opacity="0.6" d="M138.74 130.47a2.56 2.56 0 0 1 2.56-2.34h12.09a2.56 2.56 0 0 1 2.55 2.34l4.3 50.24a12.94 12.94 0 1 1-25.79 0z"/><path fill="url(#paint11_linear_97_3147)" fill-opacity="0.5" d="M138.74 130.47a2.56 2.56 0 0 1 2.56-2.34h12.09a2.56 2.56 0 0 1 2.55 2.34l4.3 50.24a12.94 12.94 0 1 1-25.79 0z"/><path fill="url(#paint12_linear_97_3147)" d="M64.43 130.47a2.56 2.56 0 0 1 2.55-2.34h12.1a2.56 2.56 0 0 1 2.55 2.34l4.3 50.24a12.94 12.94 0 1 1-25.8 0z"/><path fill="url(#paint13_linear_97_3147)" fill-opacity="0.6" d="M64.43 130.47a2.56 2.56 0 0 1 2.55-2.34h12.1a2.56 2.56 0 0 1 2.55 2.34l4.3 50.24a12.94 12.94 0 1 1-25.8 0z"/><path fill="url(#paint14_linear_97_3147)" fill-opacity="0.5" d="M64.43 130.47a2.56 2.56 0 0 1 2.55-2.34h12.1a2.56 2.56 0 0 1 2.55 2.34l4.3 50.24a12.94 12.94 0 1 1-25.8 0z"/></g><defs><linearGradient id="paint0_linear_97_3147" x1="75.5938" x2="69.9077" y1="108.693" y2="122.339" gradientUnits="userSpaceOnUse"><stop stop-color="#B9BED9"/><stop offset="1" stop-color="#D3D7E8"/></linearGradient><linearGradient id="paint1_linear_97_3147" x1="73.0312" x2="73.0312" y1="10.25" y2="110.188" gradientUnits="userSpaceOnUse"><stop stop-color="#E9ECF7"/><stop offset="1" stop-color="#CDD1E4"/></linearGradient><linearGradient id="paint2_linear_97_3147" x1="73.0312" x2="73.0312" y1="17.9375" y2="102.5" gradientUnits="userSpaceOnUse"><stop stop-color="#fff"/><stop offset="1" stop-color="#E4E6ED"/></linearGradient><linearGradient id="paint3_linear_97_3147" x1="82.2402" x2="82.7351" y1="47.2528" y2="112.739" gradientUnits="userSpaceOnUse"><stop stop-color="#fff" stop-opacity="0"/><stop offset="1" stop-color="#fff"/></linearGradient><linearGradient id="paint4_linear_97_3147" x1="17.5295" x2="17.8592" y1="14.8768" y2="28.2503" gradientUnits="userSpaceOnUse"><stop stop-color="#fff" stop-opacity="0"/><stop offset="1" stop-color="#fff"/></linearGradient><linearGradient id="paint5_linear_97_3147" x1="48.9934" x2="48.9934" y1="18.5112" y2="62.984" gradientUnits="userSpaceOnUse"><stop stop-color="#fff"/><stop offset="1" stop-color="#fff"/></linearGradient><linearGradient id="paint6_linear_97_3147" x1="48.9934" x2="48.9934" y1="18.5112" y2="62.984" gradientUnits="userSpaceOnUse"><stop stop-color="#fff"/><stop offset="1" stop-color="#fff"/></linearGradient><linearGradient id="paint7_linear_97_3147" x1="172.476" x2="143.689" y1="142.875" y2="31.4513" gradientUnits="userSpaceOnUse"><stop stop-color="#B9BED9"/><stop offset="1" stop-color="#D3D7E8"/></linearGradient><linearGradient id="paint8_linear_97_3147" x1="146.26" x2="150.39" y1="86.5001" y2="89.2635" gradientUnits="userSpaceOnUse"><stop stop-color="#fff"/><stop offset="1" stop-color="#fff" stop-opacity="0"/></linearGradient><linearGradient id="paint9_linear_97_3147" x1="133.25" x2="158.89" y1="163.024" y2="164.302" gradientUnits="userSpaceOnUse"><stop stop-color="#C7C0FA"/><stop offset="0.3125" stop-color="#D6D0FB"/><stop offset="1" stop-color="#8574F1"/></linearGradient><linearGradient id="paint10_linear_97_3147" x1="146.063" x2="146.063" y1="192.187" y2="161.437" gradientUnits="userSpaceOnUse"><stop stop-color="#9080F3"/><stop offset="0.648933" stop-color="#9080F3" stop-opacity="0"/></linearGradient><linearGradient id="paint11_linear_97_3147" x1="147.344" x2="147.344" y1="128.125" y2="131.969" gradientUnits="userSpaceOnUse"><stop stop-color="#fff"/><stop offset="1" stop-color="#fff" stop-opacity="0"/></linearGradient><linearGradient id="paint12_linear_97_3147" x1="58.9376" x2="84.578" y1="163.024" y2="164.302" gradientUnits="userSpaceOnUse"><stop stop-color="#C7C0FA"/><stop offset="0.3125" stop-color="#D6D0FB"/><stop offset="1" stop-color="#8574F1"/></linearGradient><linearGradient id="paint13_linear_97_3147" x1="71.7501" x2="71.7501" y1="192.187" y2="161.437" gradientUnits="userSpaceOnUse"><stop stop-color="#9080F3"/><stop offset="0.648933" stop-color="#9080F3" stop-opacity="0"/></linearGradient><linearGradient id="paint14_linear_97_3147" x1="73.0314" x2="73.0314" y1="128.125" y2="131.969" gradientUnits="userSpaceOnUse"><stop stop-color="#fff"/><stop offset="1" stop-color="#fff" stop-opacity="0"/></linearGradient><filter id="filter0_f_97_3147" width="26.304" height="26.3037" x="8.35889" y="4.35938" color-interpolation-filters="sRGB" filterUnits="userSpaceOnUse"><feFlood flood-opacity="0" result="BackgroundImageFix"/><feBlend in="SourceGraphic" in2="BackgroundImageFix" result="shape"/><feGaussianBlur result="effect1_foregroundBlur_97_3147" stdDeviation="2"/></filter><filter id="filter1_f_97_3147" width="54.8135" height="52.4727" x="21.5867" y="14.5112" color-interpolation-filters="sRGB" filterUnits="userSpaceOnUse"><feFlood flood-opacity="0" result="BackgroundImageFix"/><feBlend in="SourceGraphic" in2="BackgroundImageFix" result="shape"/><feGaussianBlur result="effect1_foregroundBlur_97_3147" stdDeviation="2"/></filter></defs></svg>